# xmcd
#
# Track frame offsets:
#	150
#	9847
#	23621
#	35666
#	48423
#	61606
#	75431
#	88229
#	101631
#	111934
#	123322
#	135121
#	149174
#	161917
#
# Disc length: 2329 seconds
# Revision: 1
# Processed by: cddbd v1.5.2PL0 Copyright (c) Steve Scherf et al.
# Submitted via: dBpowerAMP V12.0
#
DISCID=af09170e
DTITLE=Various Artist - The Poet Of The Blues disc 04 Willie Dixon, Otis Rush, Howlin' Wolf, Chuck Berry
DYEAR=2011
DGENRE=Blues
TTITLE0=Willie Dixon - 29 Ways
TTITLE1=Willie Dixon - Walkin' The BLues
TTITLE2=Otis Rush - You Know My Love
TTITLE3=Howlin' Wolf - I Ain't Superstitious
TTITLE4=Chuck Berry - Too Much Monkey Business
TTITLE5=Chuck Berry - Wee Wee Hours
TTITLE6=Chuck Berry - Roly Poly
TTITLE7=Chuck Berry - No Money Down
TTITLE8=Chuck Berry - Brown Eyed Handsome Man
TTITLE9=Chuck Berry - Berry Pickin'
TTITLE10=Chuck Berry - Together
TTITLE11=Chuck Berry - Havana Moon
TTITLE12=Chuck Berry - Downbound Train
TTITLE13=Chuck Berry - Drifting Heart
EXTD=
EXTT0=
EXTT1=
EXTT2=
EXTT3=
EXTT4=
EXTT5=
EXTT6=
EXTT7=
EXTT8=
EXTT9=
EXTT10=
EXTT11=
EXTT12=
EXTT13=
PLAYORDER=
